<?xml version="1.0" standalone="no"?>
<!DOCTYPE svg PUBLIC "-//W3C//DTD SVG 20010904//EN"
 "http://www.w3.org/TR/2001/REC-SVG-20010904/DTD/svg10.dtd">
<svg version="1.0" xmlns="http://www.w3.org/2000/svg"
 width="512.000000pt" height="512.000000pt" viewBox="0 0 512.000000 512.000000"
 preserveAspectRatio="xMidYMid meet">

<g transform="translate(0.000000,512.000000) scale(0.100000,-0.100000)"
fill="#000000" stroke="none">
<path d="M2245 4889 c-407 -44 -811 -206 -1150 -462 -107 -81 -336 -311 -416
-419 -76 -102 -193 -288 -186 -295 3 -2 26 -1 52 2 45 7 47 9 78 71 l32 64 32
-64 32 -64 59 -7 c88 -10 91 -16 32 -65 -46 -39 -51 -46 -46 -74 3 -17 9 -51
12 -75 l7 -44 -62 33 -62 34 -66 -33 -65 -32 6 33 c20 114 21 110 -23 152
l-40 39 -40 -87 c-144 -313 -212 -616 -213 -951 0 -94 3 -192 7 -218 l7 -47
2249 0 c2133 0 2250 1 2257 18 9 22 9 451 0 475 -7 16 -61 17 -943 17 l-935 0
0 255 0 255 876 0 875 0 -7 23 c-24 81 -120 279 -196 405 l-49 82 -750 0 -749
0 0 255 0 255 501 0 c441 0 500 2 489 15 -29 35 -237 163 -375 230 -222 109
-425 172 -675 210 -128 20 -432 27 -555 14z m-717 -293 l30 -64 66 -7 c36 -4
66 -10 66 -13 0 -4 -21 -27 -46 -53 l-46 -46 11 -58 c17 -89 17 -88 -51 -50
l-63 34 -62 -35 c-70 -39 -69 -39 -51 50 l11 57 -46 47 c-26 26 -47 50 -47 54
0 3 29 9 66 13 l65 7 32 64 c17 35 32 64 33 64 1 0 16 -29 32 -64z m937 -71
c36 -4 65 -10 65 -13 0 -4 -21 -27 -46 -53 l-46 -46 11 -58 c17 -91 18 -90
-51 -51 l-63 35 -62 -35 c-70 -39 -69 -39 -52 51 l11 58 -46 46 c-25 26 -46
49 -46 53 0 3 29 9 66 13 l65 7 32 64 32 64 32 -64 32 -64 66 -7z m-1345 -359
l28 -64 72 -7 72 -7 -52 -53 -51 -52 11 -63 c6 -34 9 -64 7 -67 -3 -2 -32 9
-64 26 l-59 29 -62 -33 c-68 -36 -68 -36 -50 49 l11 57 -46 47 c-26 26 -47 51
-47 54 0 4 30 10 66 13 l65 7 32 64 c17 35 33 64 35 64 1 0 16 -29 32 -64z
m925 -71 c36 -3 65 -10 65 -14 0 -4 -21 -27 -46 -51 -45 -44 -45 -46 -39 -95
3 -27 9 -61 12 -74 6 -24 5 -24 -58 11 l-64 36 -59 -30 c-32 -16 -60 -27 -63
-24 -3 3 -1 34 5 68 l11 63 -52 47 c-28 26 -49 49 -47 51 3 2 34 8 70 13 l65
9 34 64 34 65 33 -66 33 -66 66 -7z m-433 -380 c96 -12 96 -12 38 -63 l-52
-47 11 -59 c17 -92 18 -91 -50 -55 l-60 33 -65 -32 c-35 -18 -64 -29 -64 -25
0 3 5 35 11 71 l11 64 -47 48 c-26 26 -43 50 -38 53 4 2 34 8 66 12 l58 7 32
64 32 64 32 -64 32 -64 53 -7z m840 0 c92 -11 91 -11 37 -62 -55 -51 -53 -40
-32 -162 l6 -34 -62 33 -62 34 -66 -33 -66 -32 7 38 c3 21 9 54 12 73 5 33 2
39 -44 82 -56 52 -56 52 36 63 l53 7 32 64 32 64 32 -64 32 -64 53 -7z m-1333
-334 c33 -65 35 -66 115 -76 l58 -8 -52 -52 -51 -52 11 -63 c6 -34 9 -64 7
-67 -3 -2 -31 9 -63 25 l-59 30 -58 -30 c-33 -16 -61 -27 -64 -25 -2 3 1 33 7
67 l11 63 -52 53 -51 52 64 7 c36 4 70 10 76 14 6 4 23 32 36 64 14 31 28 57
31 57 2 0 18 -26 34 -59z m864 -62 c5 -4 36 -10 68 -13 33 -4 59 -10 59 -14 0
-3 -21 -28 -46 -54 l-47 -47 10 -63 c6 -35 9 -64 8 -66 -2 -2 -31 11 -65 28
l-61 31 -55 -32 c-30 -17 -58 -29 -61 -25 -3 3 -1 34 5 68 l10 63 -50 51 -50
51 58 8 c80 10 81 11 116 78 l30 61 31 -59 c16 -33 34 -63 40 -66z m-1294
-348 c29 -57 32 -59 78 -66 103 -14 101 -11 44 -69 l-51 -52 10 -53 c16 -85
17 -85 -52 -50 l-62 31 -64 -31 -64 -32 6 33 c21 119 22 111 -30 157 -39 34
-45 44 -34 51 8 6 25 10 36 10 67 0 84 11 115 71 16 33 31 59 34 59 3 0 18
-26 34 -59z m841 0 c29 -59 30 -59 82 -66 96 -13 97 -15 38 -68 l-51 -46 10
-57 c17 -89 18 -88 -51 -53 l-62 31 -64 -31 -64 -32 6 33 c21 119 23 110 -34
158 -51 42 -52 44 -29 51 13 4 45 10 72 14 46 6 48 8 77 66 17 32 32 59 35 59
3 0 18 -27 35 -59z m840 0 c29 -59 30 -59 82 -66 96 -13 97 -16 38 -67 l-52
-46 11 -64 c6 -36 11 -68 11 -71 0 -4 -28 7 -62 24 l-62 31 -63 -31 c-70 -34
-69 -35 -52 53 l12 57 -54 48 -54 48 30 6 c17 3 49 9 73 12 40 6 44 10 72 66
17 32 32 59 35 59 3 0 18 -27 35 -59z"/>
<path d="M350 1866 c0 -8 83 -203 107 -251 14 -27 52 -96 86 -152 l60 -103
1878 0 1877 0 39 63 c81 129 180 331 208 425 l6 22 -2130 0 c-1172 0 -2131 -2
-2131 -4z"/>
<path d="M1100 842 c0 -4 33 -30 73 -59 301 -215 682 -360 1059 -404 137 -16
493 -7 618 16 240 43 452 114 663 222 119 61 347 208 347 223 0 6 -524 10
-1380 10 -759 0 -1380 -3 -1380 -8z"/>
</g>
</svg>
